 <svg version="1.0" xmlns="http://www.w3.org/2000/svg" width="700.000000pt" height="700.000000pt" viewBox="0 0 700.000000 700.000000" preserveAspectRatio="xMidYMid meet">
<metadata>
Created by potrace 1.12, written by Peter Selinger 2001-2015
</metadata>
<g transform="translate(0.000000,700.000000) scale(0.100000,-0.100000)" fill="#000000" stroke="none">
<path d="M5879 6827 c-26 -18 -66 -46 -91 -63 -24 -18 -66 -44 -93 -59 -28
-16 -75 -49 -106 -74 -60 -48 -223 -175 -396 -308 -56 -43 -169 -132 -250
-197 -81 -66 -173 -139 -203 -163 -153 -120 -331 -262 -370 -296 -41 -35 -43
-38 -25 -51 18 -13 18 -24 -1 -133 -5 -26 -3 -33 10 -33 12 0 16 10 16 40 0
22 5 40 10 40 6 0 10 -9 10 -19 0 -11 5 -23 10 -26 8 -5 16 92 13 163 -1 8 19
28 44 45 25 18 93 72 152 120 58 49 117 94 131 100 27 12 42 24 136 111 33 31
64 56 68 56 6 0 202 145 491 365 157 119 381 294 424 332 l37 32 -4 -92 c-2
-51 1 -132 7 -182 6 -49 16 -205 21 -345 8 -219 14 -292 32 -370 2 -10 -27
-17 -126 -27 -71 -7 -163 -22 -205 -33 -117 -32 -187 -47 -296 -65 -240 -40
-902 -225 -951 -266 -8 -6 -11 -15 -8 -20 6 -11 164 0 179 11 12 9 147 31 153
25 7 -6 -60 -38 -138 -64 -61 -21 -76 -30 -78 -49 -5 -33 21 -37 73 -13 55 26
93 29 55 5 -117 -74 -243 -368 -302 -704 -13 -73 -22 -169 -22 -232 l-1 -108
-25 0 c-33 0 -253 49 -263 59 -4 4 -1 24 8 44 23 56 16 275 -10 284 -6 2 -10
-51 -10 -145 0 -81 -3 -154 -7 -163 -5 -14 -14 -15 -60 -7 -83 14 -84 15 -58
43 21 22 22 31 17 96 -6 74 -21 106 -36 80 -5 -8 -14 -10 -21 -6 -9 6 -9 9 1
16 11 6 10 9 -4 15 -13 4 -28 -2 -48 -22 -33 -32 -37 -54 -10 -61 14 -3 20
-17 24 -51 3 -26 8 -56 12 -68 6 -20 5 -20 -82 -8 -48 7 -90 13 -92 13 -8 2 7
122 17 134 5 7 12 23 15 37 11 42 146 177 189 188 48 13 88 -1 114 -40 19 -28
34 -36 34 -18 0 19 -84 90 -107 90 -13 0 -23 4 -23 9 0 12 89 31 144 31 l43 0
11 58 c6 31 12 66 14 76 2 14 -5 22 -27 28 -38 11 -198 90 -167 83 12 -3 32
-8 45 -11 12 -3 -17 14 -64 38 -114 57 -142 69 -147 63 -3 -2 25 -19 62 -36
58 -28 89 -49 72 -49 -3 0 -50 20 -103 44 -54 24 -116 49 -138 56 -22 7 -55
21 -73 31 -19 11 -37 17 -42 14 -12 -7 -7 -370 5 -370 6 0 9 12 7 27 -2 15 5
39 14 53 13 19 17 49 17 116 1 49 3 89 7 89 3 0 43 -13 90 -29 46 -16 87 -28
90 -26 10 6 94 -25 112 -42 19 -17 92 -45 168 -66 25 -7 44 -15 43 -20 -1 -4
-7 -30 -14 -57 -11 -44 -15 -49 -33 -43 -12 4 -73 8 -136 8 -63 0 -159 1 -212
3 -89 2 -98 4 -98 21 0 11 -4 23 -10 26 -5 3 -10 -2 -10 -12 0 -10 -3 -28 -6
-40 -5 -17 -2 -23 10 -23 14 0 14 -3 4 -20 -7 -10 -9 -22 -5 -26 12 -12 209
-15 223 -3 11 9 15 7 21 -7 4 -12 -1 -22 -16 -33 -95 -67 -140 -143 -162 -273
l-13 -78 -40 1 c-23 0 -68 5 -101 10 -189 28 -507 41 -985 41 -662 -1 -1001
-17 -1174 -58 -41 -10 -63 -11 -70 -4 -5 5 -17 10 -26 10 -19 0 -80 -73 -80
-96 0 -10 -15 -63 -34 -119 -19 -55 -41 -131 -50 -170 -8 -38 -27 -117 -40
-175 -13 -58 -32 -157 -41 -220 -9 -63 -20 -142 -25 -175 -5 -33 -12 -114 -16
-180 -3 -66 -9 -124 -13 -130 -11 -16 -7 -573 4 -584 7 -7 37 12 90 56 44 36
107 81 140 100 33 19 85 60 115 89 99 96 102 97 141 26 54 -98 68 -128 69
-144 0 -25 20 -23 20 2 0 11 6 20 13 20 13 0 77 187 77 223 0 9 4 26 9 39 6
13 13 41 16 63 5 27 18 50 42 73 l36 33 13 -23 c7 -13 17 -30 21 -38 4 -8 24
-31 45 -51 21 -20 38 -42 38 -50 1 -17 38 -64 46 -57 2 3 0 17 -6 32 -14 39
-13 44 14 42 13 0 23 -3 21 -5 -2 -1 0 -14 5 -27 7 -17 5 -36 -7 -65 -12 -32
-13 -43 -4 -52 10 -9 19 -4 42 23 l30 35 19 -25 c11 -14 36 -58 56 -97 41 -84
59 -102 50 -52 -6 27 -5 31 4 16 7 -10 9 -31 5 -49 -6 -26 -5 -30 9 -25 11 4
28 -6 51 -31 27 -29 37 -34 44 -23 5 8 17 11 28 7 16 -5 36 10 94 72 41 44 84
85 96 91 20 10 23 9 29 -16 9 -44 77 -226 89 -243 49 -64 69 -228 54 -445 -12
-177 -32 -259 -73 -303 -16 -18 -35 -31 -41 -29 -5 2 -43 -27 -84 -65 -41 -37
-80 -68 -87 -68 -6 0 -18 -7 -25 -17 -13 -15 -11 -16 14 -9 22 5 27 4 23 -6
-3 -7 -9 -21 -12 -30 -4 -10 -9 -18 -13 -18 -9 1 -93 121 -98 140 -2 9 2 22
10 28 12 11 19 5 41 -33 15 -25 32 -45 37 -45 6 0 2 15 -9 33 -11 17 -29 49
-40 70 l-21 39 -16 -32 c-15 -28 -18 -30 -33 -17 -34 28 -45 31 -38 9 6 -17 3
-19 -14 -15 -27 7 -34 21 -19 39 18 22 -5 43 -29 26 -33 -23 -45 -25 -57 -9
-18 25 -31 21 -55 -18 -12 -19 -24 -35 -27 -35 -3 0 -18 11 -35 25 -16 14 -38
25 -49 25 -10 0 -19 7 -19 15 0 8 -4 15 -10 15 -5 0 -10 -4 -10 -9 0 -5 -18
-39 -40 -75 -22 -36 -40 -70 -40 -74 0 -5 -19 -38 -42 -73 -23 -35 -44 -79
-47 -98 -9 -54 -32 -60 -72 -20 -69 70 -209 261 -209 284 0 17 -60 66 -65 52
-2 -7 -14 -52 -28 -102 -33 -120 -43 -122 -170 -29 -51 37 -104 78 -118 92
-16 14 -29 19 -33 14 -4 -6 -2 -13 4 -17 5 -3 10 -25 10 -49 0 -42 21 -147 60
-304 11 -45 18 -87 15 -92 -10 -17 42 -211 106 -392 33 -95 68 -195 76 -223 9
-27 27 -67 41 -87 14 -23 22 -44 18 -54 -4 -11 2 -27 18 -43 29 -31 106 -154
100 -160 -7 -7 -74 62 -74 76 0 7 -5 13 -11 13 -7 0 -9 -9 -5 -22 3 -13 6 -29
6 -35 0 -16 130 -78 195 -93 28 -6 59 -15 70 -20 18 -8 95 -19 170 -25 17 -2
73 -8 125 -14 216 -26 357 -31 580 -21 227 10 273 14 545 49 155 20 345 55
380 70 11 4 38 16 60 26 22 9 105 26 185 36 303 40 409 58 507 85 128 35 171
46 238 60 39 8 90 18 115 23 58 12 129 43 112 48 -22 8 7 33 37 33 16 0 79 32
157 79 172 106 173 107 167 131 -3 11 0 26 6 34 6 7 8 26 5 44 -5 23 -1 34 15
48 11 11 56 53 98 95 76 73 104 89 165 90 10 0 23 10 29 21 9 16 8 19 -2 13
-9 -6 -10 -2 -5 16 4 13 10 35 13 49 3 14 12 34 19 45 19 27 19 1 -1 -55 -15
-43 -15 -43 4 -26 56 51 69 233 28 381 -13 50 -28 97 -31 106 -5 11 3 27 23
47 17 17 31 37 31 46 0 8 4 17 9 20 5 3 12 23 15 43 4 21 11 52 16 68 5 17 14
66 19 109 6 44 15 84 20 90 5 6 12 52 14 101 8 131 25 285 37 321 6 17 10 51
10 75 0 368 -3 535 -10 555 -6 14 -15 77 -21 141 -16 174 -54 382 -83 447 -7
17 -18 49 -24 71 -22 79 -47 101 -193 169 -75 35 -177 79 -227 98 -76 27 -92
37 -92 54 0 12 7 27 15 34 18 15 61 107 70 151 3 19 15 53 26 76 10 24 19 55
19 71 0 15 6 36 14 47 24 34 48 259 40 375 -8 109 -40 260 -56 260 -12 0 -10
-21 8 -92 37 -141 13 -390 -58 -602 -32 -97 -99 -256 -123 -292 -14 -22 -16
-22 -62 -7 -52 17 -301 86 -345 97 -26 6 -28 10 -28 63 0 125 83 515 126 590
13 23 24 54 24 69 0 15 15 50 34 78 18 28 36 60 40 72 3 11 27 35 51 53 25 18
45 36 45 41 0 5 14 29 31 54 28 42 34 46 70 46 24 0 38 4 34 10 -3 6 -19 10
-36 10 -63 0 -16 40 71 60 30 7 82 23 115 36 33 13 70 24 81 24 12 0 38 7 57
15 20 8 54 15 75 15 22 0 59 11 86 25 26 14 59 25 74 25 15 0 59 6 97 14 39 8
99 20 135 26 36 6 79 18 95 25 17 8 59 17 95 20 36 4 70 11 75 15 6 4 44 13
85 20 84 14 140 34 140 49 0 14 -25 14 -87 1 -26 -5 -124 -24 -218 -41 -204
-37 -576 -120 -699 -155 -48 -14 -93 -23 -98 -22 -16 6 177 61 332 96 74 16
153 35 175 40 22 6 65 15 95 21 168 32 381 86 420 106 47 24 59 48 74 150 18
121 14 547 -6 601 -9 26 -9 41 2 73 8 24 10 50 5 68 -4 15 -8 52 -7 81 0 33
-4 52 -11 52 -8 0 -8 3 1 9 19 12 -12 35 -38 28 -11 -3 -20 -1 -20 4 0 5 5 9
10 9 6 0 10 5 10 10 0 17 -23 10 -71 -23z m-2369 -1827 c0 -5 -4 -10 -10 -10
-5 0 -10 5 -10 10 0 6 5 10 10 10 6 0 10 -4 10 -10z m-887 -669 c13 -5 143
-10 288 -12 227 -2 329 -8 577 -35 24 -2 74 -9 110 -15 37 -5 101 -14 142 -19
41 -5 95 -13 120 -19 25 -5 72 -14 105 -19 140 -22 343 -64 569 -118 33 -8 81
-28 108 -44 30 -18 62 -30 83 -30 20 0 61 -11 93 -24 52 -21 88 -31 177 -52
17 -3 25 -8 19 -11 -7 -2 -10 -13 -7 -23 3 -11 0 -20 -5 -20 -14 0 -34 -73
-26 -93 3 -8 1 -18 -5 -22 -14 -8 -15 -381 -1 -390 5 -3 9 -55 9 -118 0 -62 3
-171 7 -243 6 -121 5 -133 -12 -148 -20 -17 -50 -42 -204 -166 -100 -81 -160
-133 -224 -193 -55 -53 -91 -70 -116 -57 -38 20 -43 50 -51 265 -7 200 -17
265 -38 265 -33 0 -304 -270 -360 -358 -33 -51 -59 -68 -98 -60 -13 2 -19 14
-21 43 -2 22 -7 44 -12 50 -4 5 -21 51 -38 100 -60 176 -174 455 -187 455 -6
0 -82 -83 -155 -170 -35 -41 -135 -146 -224 -234 -123 -121 -163 -156 -175
-149 -8 5 -46 56 -86 114 -168 245 -192 281 -239 337 l-50 60 -90 -76 c-49
-43 -119 -101 -155 -131 -36 -30 -105 -92 -152 -138 -60 -57 -94 -83 -111 -83
-32 0 -75 58 -168 225 -40 72 -100 175 -133 230 -32 55 -64 122 -71 150 l-11
49 -75 -71 c-41 -39 -111 -97 -156 -129 -45 -33 -132 -99 -195 -149 -63 -49
-170 -129 -239 -177 l-125 -88 -13 52 c-18 71 -21 387 -4 502 7 49 22 106 33
127 14 29 19 59 19 120 0 81 50 361 85 478 21 69 60 155 77 168 65 53 573 98
993 88 138 -3 273 -1 300 4 69 12 90 12 118 2z m2354 -753 c-3 -7 -5 -2 -5 12
0 14 2 19 5 13 2 -7 2 -19 0 -25z m0 -180 c-3 -7 -5 -2 -5 12 0 14 2 19 5 13
2 -7 2 -19 0 -25z m-3227 -243 c7 -20 13 -46 15 -58 2 -12 7 -32 10 -43 4 -12
2 -25 -3 -28 -13 -8 -56 62 -54 88 0 11 -4 26 -10 33 -7 9 -7 17 2 28 19 23
27 18 40 -20z m1846 -82 c3 -10 12 -31 20 -48 22 -48 52 -137 118 -360 15 -49
36 -105 46 -125 10 -19 21 -43 24 -52 6 -21 72 -25 79 -5 2 6 7 10 10 7 3 -3
-17 -34 -44 -70 -27 -36 -49 -68 -49 -72 0 -20 20 -1 70 69 30 42 77 97 104
122 27 25 90 88 140 139 94 97 182 167 190 153 11 -17 56 -365 56 -433 0 -40
4 -89 9 -108 5 -19 12 -47 15 -62 9 -39 29 -36 24 3 -4 27 4 39 71 107 86 88
174 167 211 190 14 9 48 36 76 59 28 24 56 43 61 43 6 0 23 18 38 40 15 22 34
40 41 40 18 0 18 -32 -1 -139 -21 -118 -43 -460 -35 -518 4 -26 6 -94 4 -150
-3 -61 0 -104 6 -108 23 -14 10 -75 -26 -127 -32 -45 -76 -132 -112 -220 -12
-30 -32 -38 -32 -13 0 8 -4 15 -9 15 -14 0 -52 136 -61 219 -4 42 -11 84 -14
94 -3 9 -8 24 -11 33 -5 15 -8 14 -29 -5 -18 -17 -25 -19 -29 -9 -9 26 -89
-63 -178 -200 l-42 -63 -88 4 c-49 3 -89 2 -89 -3 0 -13 60 -30 107 -30 41 0
42 -1 31 -20 -11 -17 -24 -20 -75 -20 -59 0 -85 13 -45 23 12 3 9 6 -12 12
-16 4 -43 3 -65 -4 -31 -9 -38 -8 -48 6 -18 24 -16 33 7 33 11 0 20 7 20 15 0
9 -9 15 -24 15 -41 0 -56 11 -81 60 -24 47 -91 114 -106 104 -4 -2 -25 16 -47
41 -46 53 -65 49 -22 -5 36 -46 37 -56 6 -64 -12 -3 -36 -24 -51 -46 -16 -23
-34 -39 -40 -36 -7 2 -37 7 -68 11 -73 9 -77 -9 -5 -21 28 -5 53 -14 55 -19 3
-11 -179 -259 -230 -313 -39 -41 -80 -64 -101 -56 -14 5 -66 87 -66 103 0 3 9
17 19 31 19 23 20 24 39 7 18 -16 20 -16 46 4 15 12 32 31 37 43 5 11 31 48
57 81 42 51 56 62 100 74 64 17 69 35 7 29 -24 -3 -46 -3 -49 -1 -2 2 0 18 4
33 5 16 10 46 11 67 3 31 0 37 -14 35 -13 -2 -17 5 -17 32 0 22 -9 45 -25 64
-29 34 -60 35 -119 3 -42 -22 -52 -21 -42 4 8 23 62 43 126 47 54 3 55 2 58
-24 2 -16 8 -28 13 -28 15 0 10 56 -6 70 -23 19 -111 4 -183 -32 -67 -33 -176
-133 -217 -198 -33 -52 -38 -54 -70 -20 l-28 29 34 9 c53 13 31 25 -43 25 -38
-1 -68 1 -68 5 0 3 7 14 17 24 13 15 31 18 100 18 90 0 112 15 36 25 -96 12
-89 5 -92 97 -1 78 -9 114 -69 338 -26 97 -40 479 -16 460 7 -7 16 -20 19 -31
4 -10 13 -19 20 -19 8 0 22 -8 32 -19 10 -10 33 -22 51 -26 17 -3 32 -11 32
-16 0 -5 9 -9 20 -9 11 0 20 4 20 10 0 5 33 47 74 92 144 161 275 318 317 383
45 68 56 76 65 48z m-2041 -63 c-10 -11 -22 -17 -27 -14 -12 8 11 34 30 34 13
0 12 -3 -3 -20z m1126 -33 c-7 -7 -12 -5 -17 7 -4 11 -1 21 7 27 17 11 26 -18
10 -34z m-1178 -37 c-3 -11 -9 -20 -14 -20 -10 0 -12 33 -3 43 12 12 22 -3 17
-23z m-117 -77 c-12 -12 -29 15 -21 34 7 17 8 16 18 -5 5 -12 7 -25 3 -29z
m1479 -73 c12 -25 25 -67 29 -95 4 -27 9 -58 12 -67 3 -10 1 -18 -5 -18 -6 0
-11 7 -11 16 0 8 -11 40 -25 70 -14 30 -25 62 -25 72 0 9 -6 28 -13 42 -8 14
-16 37 -20 50 l-6 25 21 -25 c11 -14 30 -45 43 -70z m-345 70 c0 -5 -5 -10
-11 -10 -5 0 -7 5 -4 10 3 6 8 10 11 10 2 0 4 -4 4 -10z m-57 -64 c-19 -26
-33 -33 -33 -16 0 13 40 53 47 47 3 -3 -3 -17 -14 -31z m-6 -98 c-3 -8 -6 -5
-6 6 -1 11 2 17 5 13 3 -3 4 -12 1 -19z m1350 -135 c11 -68 -9 -28 -45 87 -2
8 6 0 18 -19 12 -19 24 -49 27 -68z m-896 0 c0 -16 3 -54 5 -85 3 -35 0 -58
-6 -58 -5 0 -10 26 -11 58 0 31 -2 69 -4 85 -2 15 1 27 6 27 5 0 9 -12 10 -27z
m2066 -50 c-3 -10 -5 -4 -5 12 0 17 2 24 5 18 2 -7 2 -21 0 -30z m-3 -120 c-2
-32 -6 -183 -8 -335 -2 -152 -7 -281 -11 -287 -3 -6 -13 -11 -21 -11 -13 0
-14 20 -9 143 7 176 10 223 24 362 7 61 11 123 11 138 0 27 6 47 15 47 3 0 2
-26 -1 -57z m-2075 -22 c15 -47 15 -104 -1 -98 -7 2 -13 19 -14 38 0 19 -4 52
-9 74 -9 47 6 38 24 -14z m-306 -57 c-3 -8 -9 -11 -14 -8 -11 6 -12 58 -2 68
10 9 23 -41 16 -60z m2618 -507 c-6 -6 -11 -28 -11 -49 0 -21 -4 -38 -10 -38
-5 0 -10 5 -10 10 0 6 -7 10 -16 10 -8 0 -12 4 -9 10 3 5 2 17 -3 26 -7 12 0
25 27 53 35 35 36 35 39 12 2 -13 -1 -28 -7 -34z m-231 -58 c-43 -34 -66 -42
-32 -10 18 17 38 31 45 31 6 0 1 -9 -13 -21z m140 7 c0 -2 3 -13 7 -23 6 -17
5 -17 -13 -1 -13 11 -28 15 -43 11 -17 -4 -22 -3 -17 5 7 11 66 18 66 8z
m-3831 -49 c7 -10 7 -17 0 -24 -8 -8 -6 -20 5 -42 14 -27 15 -31 2 -31 -22 0
-39 36 -27 57 6 11 6 24 0 35 -11 21 3 24 20 5z m642 -4 c-5 -10 -24 -34 -41
-53 l-31 -35 33 52 c18 29 37 53 41 53 4 0 3 -8 -2 -17z m499 12 c0 -3 -7 -21
-14 -40 -10 -24 -22 -35 -35 -35 -27 0 -26 6 5 47 22 29 44 43 44 28z m2644
-14 c18 -7 17 -9 -10 -28 -49 -34 -54 -36 -47 -17 4 12 3 15 -5 10 -17 -11
-15 5 5 26 17 19 27 21 57 9z m-603 -34 c-10 -9 -11 -8 -5 6 3 10 9 15 12 12
3 -3 0 -11 -7 -18z m120 -75 c22 -102 70 -264 115 -387 20 -55 43 -125 51
-155 7 -30 23 -83 33 -117 28 -87 26 -103 -19 -147 -32 -32 -48 -39 -97 -46
-33 -4 -78 -17 -101 -29 -24 -12 -73 -28 -110 -35 -106 -22 -239 -56 -343 -87
-108 -33 -193 -49 -261 -49 -25 0 -71 -9 -103 -20 -31 -10 -102 -24 -159 -30
-124 -14 -226 -34 -302 -60 -31 -11 -104 -27 -163 -35 -59 -9 -183 -36 -277
-60 l-170 -44 -240 -6 c-377 -10 -888 39 -975 93 -19 12 -43 22 -53 22 -18 0
-67 88 -67 120 0 8 -9 32 -20 52 -23 44 -55 138 -65 192 -3 22 -20 78 -37 125
-38 110 -54 160 -74 241 -33 128 -62 236 -72 265 -6 17 -18 57 -28 90 -9 33
-23 72 -30 87 -24 46 -15 44 44 -14 31 -30 93 -82 137 -114 44 -32 110 -85
147 -119 36 -33 89 -77 117 -99 44 -33 57 -37 86 -32 38 8 128 79 155 124 10
17 23 33 29 36 6 4 17 21 26 39 30 61 199 261 216 254 3 -1 51 -54 106 -117
102 -118 143 -181 143 -222 0 -16 10 -30 30 -41 17 -10 40 -36 53 -58 12 -21
26 -37 32 -36 5 2 25 -16 43 -40 18 -24 39 -43 47 -43 7 0 17 -9 20 -20 3 -11
9 -20 13 -20 19 0 74 43 81 63 5 13 20 30 33 39 12 9 39 30 58 48 106 99 130
124 130 136 0 7 26 34 57 61 31 26 80 72 109 102 47 50 52 52 58 33 12 -37
234 -362 248 -362 12 0 10 11 -6 29 -26 31 -148 232 -143 237 3 3 44 -48 90
-113 47 -65 102 -134 121 -152 20 -19 36 -40 36 -47 0 -7 12 -21 28 -32 25
-19 30 -19 57 -5 45 23 84 67 198 228 24 33 55 80 70 105 14 25 45 63 68 85
23 22 56 62 75 89 l32 48 28 -53 c15 -30 44 -79 64 -110 21 -30 45 -73 55 -95
16 -40 42 -80 107 -171 21 -29 38 -59 38 -68 0 -21 39 -11 58 13 26 35 142
213 162 249 52 94 99 164 121 182 14 11 33 35 44 55 11 19 22 33 25 30 3 -3
12 -40 21 -82z m-1682 32 c-13 -14 -37 -35 -54 -46 -22 -16 -19 -9 15 25 47
48 82 67 39 21z m2307 -7 c2 -7 -2 -27 -11 -43 -8 -16 -15 -45 -15 -64 -1 -52
-18 -17 -26 53 -6 49 -4 56 12 60 32 8 34 7 40 -6z m-362 -42 c-26 -34 -42
-47 -28 -22 9 15 46 57 51 57 2 0 -8 -16 -23 -35z m-3573 -45 c21 -46 7 -55
-16 -10 -15 29 -21 69 -8 57 3 -4 14 -25 24 -47z m159 -95 c0 -7 7 -18 15 -25
21 -18 19 -33 -5 -27 -11 3 -18 1 -14 -4 3 -5 16 -9 29 -9 13 0 28 -8 34 -17
5 -10 13 -14 17 -10 4 4 0 21 -9 36 -29 50 -19 47 32 -8 l50 -54 -22 -28 c-11
-16 -23 -29 -27 -29 -3 0 -46 38 -95 85 -51 48 -83 85 -74 85 9 0 22 -7 29
-15 7 -8 16 -12 22 -9 5 3 5 11 -2 19 -16 19 -70 133 -70 148 0 6 21 -19 45
-57 25 -38 45 -75 45 -81z m784 97 c27 -40 33 -58 16 -47 -11 7 -53 85 -47 85
3 0 16 -17 31 -38z m822 13 c8 -21 -6 -41 -17 -24 -12 19 -11 39 1 39 6 0 13
-7 16 -15z m1800 -93 c-18 -16 -18 -16 -6 6 6 13 14 21 18 18 3 -4 -2 -14 -12
-24z m-3521 8 c3 -5 1 -10 -4 -10 -6 0 -11 5 -11 10 0 6 2 10 4 10 3 0 8 -4
11 -10z m2785 -12 c0 -4 -7 -8 -15 -8 -8 0 -15 4 -15 8 0 5 7 9 15 9 8 0 15
-4 15 -9z m160 -34 c2 -3 -3 -19 -13 -37 -9 -18 -19 -44 -23 -59 -3 -14 -14
-34 -25 -44 -17 -15 -20 -15 -43 -1 -14 10 -31 37 -41 67 -9 27 -21 52 -26 55
-5 4 -9 13 -9 22 0 13 12 14 88 8 48 -4 89 -9 92 -11z m836 -99 c-4 -17 -13
-40 -21 -51 -14 -18 -14 -16 -9 16 2 19 10 60 17 90 l12 55 3 -40 c2 -21 1
-53 -2 -70z m165 22 c-13 -13 -15 31 -3 60 5 14 8 10 10 -16 2 -18 -1 -38 -7
-44z m-1979 39 c15 -11 16 -15 3 -32 -13 -19 -14 -19 -29 1 -30 39 -12 60 26
31z m1850 -218 c-7 -7 -12 -8 -12 -2 0 14 12 26 19 19 2 -3 -1 -11 -7 -17z
m-142 -28 c0 -5 -5 -10 -11 -10 -5 0 -7 5 -4 10 3 6 8 10 11 10 2 0 4 -4 4
-10z m-125 -110 c-3 -5 -12 -10 -18 -10 -7 0 -6 4 3 10 19 12 23 12 15 0z
m-3406 -711 c13 -11 22 -21 20 -23 -2 -2 -29 4 -59 13 -34 11 -49 19 -40 23
28 12 55 7 79 -13z m221 -59 c0 -6 -16 -8 -42 -4 -59 9 -60 14 -5 14 26 0 47
-5 47 -10z"></path>
<path d="M2990 2593 c0 -19 11 -43 21 -43 13 0 11 14 -6 36 -8 10 -15 14 -15
7z"></path>
<path d="M4735 809 c-11 -17 1 -21 15 -4 8 9 8 15 2 15 -6 0 -14 -5 -17 -11z"></path>
<path d="M5490 5760 c0 -5 5 -10 10 -10 6 0 10 5 10 10 0 6 -4 10 -10 10 -5 0
-10 -4 -10 -10z"></path>
<path d="M4307 5583 c-4 -3 -6 -49 -6 -102 l2 -96 7 85 c4 47 11 93 15 103 7
17 -5 24 -18 10z"></path>
<path d="M3540 5230 c20 -13 43 -13 35 0 -3 6 -16 10 -28 10 -18 0 -19 -2 -7
-10z"></path>
<path d="M3590 5215 c0 -4 88 -45 96 -45 2 0 4 4 4 9 0 5 -18 16 -40 25 -41
16 -60 20 -60 11z"></path>
<path d="M3730 5040 c0 -13 34 -30 59 -30 32 0 25 14 -12 28 -40 15 -47 15
-47 2z"></path>
<path d="M3970 5045 c0 -9 62 -36 68 -31 3 3 3 8 0 11 -7 7 -68 25 -68 20z"></path>
<path d="M4618 4893 c-43 -46 -57 -72 -93 -181 -30 -92 -24 -124 14 -76 11 15
21 32 21 38 0 6 10 22 21 36 17 21 20 22 15 5 -2 -11 -7 -40 -11 -65 -7 -50
-24 -137 -32 -160 -3 -11 -10 -8 -28 15 -37 45 -47 25 -36 -73 5 -45 14 -89
21 -97 7 -8 29 -15 49 -15 68 0 97 56 107 206 3 51 10 84 20 95 12 14 17 49
21 142 5 117 5 125 -16 146 -11 11 -25 21 -29 21 -4 0 -24 -17 -44 -37z m62
-24 c0 -11 -4 -17 -10 -14 -5 3 -10 13 -10 21 0 8 5 14 10 14 6 0 10 -9 10
-21z m-110 -513 c0 -3 -4 -8 -10 -11 -5 -3 -10 -1 -10 4 0 6 5 11 10 11 6 0
10 -2 10 -4z"></path>
<path d="M3440 4790 c0 -12 45 -24 59 -15 22 13 10 25 -24 25 -19 0 -35 -4
-35 -10z"></path>
<path d="M1230 475 c0 -18 19 -40 26 -32 4 4 0 15 -9 24 -9 10 -17 13 -17 8z"></path>
</g>
</svg>